<?xml version="1.0" encoding="utf-8"?>
<!-- Generator: Adobe Illustrator 19.2.1, SVG Export Plug-In . SVG Version: 6.00 Build 0)  -->
<svg version="1.1" id="Layer_1" xmlns="http://www.w3.org/2000/svg" xmlns:xlink="http://www.w3.org/1999/xlink" x="0px" y="0px"
	 viewBox="0 0 300 100" style="enable-background:new 0 0 300 100;" xml:space="preserve">
<g>
	<path d="M62.7,69c0.8-2.1,1.4-6.1,1.4-15.3c0-18.9-0.2-22.2-1.2-25.9C67.6,25.3,73,20.9,77,15.6l0.9,0.8l-1.8,2.3
		c5.6,4.5,11.2,13.4,11.2,15.6c0,2.1-6.8,12.6-14.4,19.2v7.7c2.4,0.4,6.3,1.7,9.1,2.9c2.1-3.2,2.3-5.2,2.3-7.6
		c0-1.1-0.1-2.2-0.5-3.5h1.6c0.5,1.2,0.9,2.9,0.9,4.1c0,1.7-0.9,5.5-8.5,15.7C73.8,69.8,62.7,69,62.7,69z M73,51.3
		c4.5-3.2,7.1-7,7.1-10.1c0-4.4-4.2-10.2-7.1-12.9V51.3z"/>
	<path d="M105.3,65.3c-2.6-2.3-3-3.3-3-6.5V33.3c0-2.7,0.1-4.9,0.2-6.5c3,1.1,7.4,2.5,10.2,3.1c-1.2,2-1.6,3.8-1.6,9.7
		c0,4.4,0.2,10.7,0.2,16.1c0,5.6-0.2,10.4-1,12.1l5.4,5.2l7.9-8.3c-3-2.3-3.3-3.1-3.3-6.2V33.4c0-6.3,0.2-7.7,3.3-10.6
		c-5-0.5-11.4-2.4-13.1-3.7c0.4-1.1,0.9-1.9,1.4-2.8l-1.1-0.7c-1.7,3.8-4.5,7.4-8.1,10.1c0-1.2,0.4-2.6,0.9-4.1
		c-1.2-0.7-2.9-1.9-4.1-2.4c0.7-1.1,1.4-1.9,2.1-2.8l-1-0.7C98,19,93.6,23.6,90,26.9c2.5,2,3.3,3.1,3.3,5.7v27.6
		c0,2.1-0.3,2.9-3.3,6c2.3,1.7,4.9,3.8,7.1,6.4"/>
	<path d="M138.3,58.7V29.5h5.2v-7.8h-5.2v-6.4c0-5.1,1.5-7.4,5.3-10.6l-0.6-1c-6.2,4.7-8.3,9.2-14.6,12.5c0.5,2.3,0.7,5.3,0.7,6.2
		v2.4l-4.3,4.7h4.5v30.4c0,2.1-1.1,4.8-2.8,6.9l10.6,5.7l6.9-7.6C138.7,61.7,138.3,61.1,138.3,58.7z"/>
	<path d="M176.2,59.5V30.6c0-2.5,0.3-4,1.5-5.7c-6.2-1.7-13.2-4.1-17.1-6.3l2.5-2.1l-0.8-0.9l-3.2,2.9c-2.8,2.5-6.8,6-11.4,9.5
		c1.3,2,1.6,7.1,1.6,20.4c0,13-0.2,14.9-2.2,18.9l9.8,5.2l6.5-7.4c2.8,2,6.8,4.8,9.4,7.4l6.7-9.1C177.2,62.4,176.2,61.2,176.2,59.5z
		 M167.2,58.8c0,1.7-0.1,2.1-0.6,2.8l-2.3,2.7l-2.9-1.9c-2.7-1.8-3.1-2.2-3.1-4.3V27.8c2,1,6.1,2.5,9,3.4V58.8z"/>
	<path d="M214.6,63.3l-9.5-24.1c4.5-3.9,6.3-5.9,6.3-8.1c0-1.7-0.9-4.2-7-11.8l2.5-2.8l-1-0.8c-2.1,3-7,7.9-11.8,10.9v-11
		c0-8.7,3.5-13.2,8.8-13.2c2.1,0,4.6,1.6,5.6,3.6l1.1-0.5c-2-3.5-4.6-5.1-6.6-5.1c-2,0-3.6,0.7-8.9,5.9c-5.9,5.8-7.1,6.3-7.9,6.3
		c-0.6,0-1-0.4-1.6-1.5l-2-3.8l-1.1,0.4c3,6.3,3.6,8.5,3.6,12.9v37.6c0,5.1-0.2,6.1-2.6,8c2.5,2,6.7,4.7,9,6.3l6.9-6.6l-4.3-4V46.4
		c0.9-0.5,2.2-1.2,3.3-1.8c2.4,5.8,9.7,24.6,9.7,26.5c0,0.7-0.2,1.2-2.7,3.7l0.8,0.8l2.4-2.4c1.8-1.8,4-3.7,6.1-5.1l2.3-1.6
		C215.6,65.8,215.1,64.6,214.6,63.3z M194.1,45V27.9c1.1-0.9,2.3-1.7,3.6-2.3c4.1,4.3,6.6,9.1,6.6,11.1
		C204.4,38.6,202.8,41,194.1,45z"/>
	<g>
		<path d="M228.7,31c0-3.9,0.6-6.1,2.6-8.7c-2.8-1.5-4.5-2.4-6.1-3.5l2.2-2.5l-1-0.6l-2.2,2.5c-1.3,1.5-5.7,4.9-8.2,7.3
			c2.7,1.6,3.6,2.3,3.6,3.5v27.5c0,4.3-0.2,5-3.2,7.5c1.9,2.1,4.8,6.1,7,9.1l8.8-7.7c-3-3.1-3.6-4.6-3.6-7V31z"/>
	</g>
	<path d="M247,15.3c0-8.7,1-10.3,6.5-13.3l-0.8-1.3c-6.2,3.1-12,10.4-14,10.5c-0.8,0-2.8-2.8-3.5-5.1L234,6.3c2.7,8,4,8,4,14.1v36.1
		c0,4.3-1.1,4.7-3.2,7.5c1.9,2.1,4.8,6.1,7,9.1l8.7-7.7c-2.9-3.1-3.5-4.6-3.5-7V15.3z"/>
	<polygon points="221.6,14.7 227.9,8.5 222.2,3 224.2,1 223.5,0.3 216.9,6.8 222.5,12.3 220.9,13.8 	"/>
	<path d="M291.1,72l-0.5,0.9c6.6,2.3,8.2,4.5,8.2,7.3c0,4-4.5,4.4-7.8,4.4c-5.8,0-15.8-3.4-30.9-7.1l-0.8-0.2l15.9-12l-0.8-1.1
		l-1.6,1.2v-55c1-0.7,2-1.3,2.9-1.8c2-0.8,4-1.1,5.9-0.7c2.2,0.5,4.1,2.1,5.8,4.7l1.2-0.7c-1.8-3-4.1-4.8-6.7-5.4
		c-5.1-1.1-10.6,2.5-15.5,5.7c-1.5,1-2.8,1.9-4.1,2.6c-7.1,4-10.9,0.7-11.1,0.6l-0.5,0.5l-0.5,0.5c0.1,0.1,2,1.7,5.4,1.7
		c0,0,0,0,0,0c0.9,0.1,2.2,0.4,2.9,1.2c0.4,0.4,0.6,0.9,0.5,1.5c-0.2,3.4,0,47.3,0,49.2l0,0.1c0,0,0.3,4-1.7,6.7
		c0,0-0.1,0.1-0.1,0.1l-9.2-1.9c-3.5,4.5-5.8,7.3-9.5,11.1l0.7,0.8c2.1-0.7,3.5-1,4.5-1c7.2,0,39.1,8,47.1,9.1l-1.1,3.1l1.3,0.4
		c2.6-8.5,9-13.9,9-18.5C300.2,76.4,297.7,74.1,291.1,72z M269.1,13c0.6-0.4,1.4-1,2.2-1.6v55.1h0.1l-2.2,1.7V13z"/>
	<path d="M56.2,11.9c-7-0.3-9.8-1.2-13.2-2.8l2.3-2.4l-0.9-0.8C40.2,10.1,36,14,30.6,18.7c-0.1-2.3,0.4-6.8,0.6-9.5h-17l2.3-2.5
		l-0.9-0.8c-11.7,11.6-13,15.3-13,19c0,3.9,1.7,8.2,7.2,9.2v-1.2C6.2,32,4,29.4,4,24.6c0-2.9,1.4-5.3,4.6-5.3H21v38.2l-10.5-7
		c-7.7,4.7-10.8,7.7-10.8,12c0,1.8,0.7,3.2,2,5.8l0.8-0.7c-1.1-1.9-1.5-3.9-1.5-5.4c0-2.9,1.4-3.6,1.6-3.6c1.4,0,10.4,6.5,18.2,10.8
		v15.5c-2.3,0.8-10.2,3.1-13.8-0.2c-1.6-4,0.4-5.8,0.5-5.8l-0.5-0.5l-0.4-0.5C6.7,77.9,2.7,81.3,8,88.7c4.9,6.7,6.6,11,6.6,11.1
		l1.3-0.5c0-0.1-0.3-0.8-1-2.1c12.7-1.5,24.4-8.2,24.5-8.3l-0.7-1.2c0,0-1.4,0.8-3.5,1.8v-14c2.5,0.7,5.7,1.5,9,1.8L42,79.8l0.8,0.8
		c3.9-4,7.9-7.6,13.3-12C53.1,36.9,56.2,11.9,56.2,11.9z M30.6,20l3.3-2.4v47.1c-1.9-0.7-3.3-1.2-3.3-1.2V20z M33.9,90.1
		c-1,0.4-2.1,0.9-3.3,1.4V73.9c0,0,1.3,0.5,3.3,1.2V90.1z M45.8,68.9c-2-0.7-6.9-2.4-10.5-3.7V17.4c4.2,1.7,5,2,10.7,3.2
		c-0.9,4.2-1.4,17.6-1.4,28.3C44.6,54.2,45.7,67.9,45.8,68.9z"/>
</g>
</svg>
